<?xml version="1.0" encoding="iso-8859-1"?>
<!-- Generator: Adobe Illustrator 19.0.0, SVG Export Plug-In . SVG Version: 6.00 Build 0)  -->
<svg version="1.1" id="Capa_1" xmlns="http://www.w3.org/2000/svg" xmlns:xlink="http://www.w3.org/1999/xlink" x="0px" y="0px"
	 viewBox="0 0 512.008 512.008" style="enable-background:new 0 0 512.008 512.008;" xml:space="preserve">
<path style="fill:#455A64;" d="M263.569,3.123c-4.165-4.164-10.917-4.164-15.083,0L45.82,205.79
	c-21.838,21.838-21.838,57.245,0,79.083c21.838,21.838,57.245,21.838,79.083,0l77.781-77.781v251.584
	c0,29.455,23.878,53.333,53.333,53.333s53.333-23.878,53.333-53.333V207.091l77.781,77.781c21.838,21.838,57.245,21.838,79.083,0
	c21.838-21.838,21.838-57.245,0-79.083L263.569,3.123z"/>
<path d="M256.017,512.008c-29.455,0-53.333-23.878-53.333-53.333V207.091l-77.781,77.803c-21.844,21.844-57.26,21.844-79.104,0
	c-21.844-21.844-21.844-57.26,0-79.104L248.465,3.123c4.165-4.164,10.917-4.164,15.083,0L466.214,205.79
	c21.838,21.838,21.838,57.245,0,79.083c-21.838,21.838-57.245,21.838-79.083,0l-77.781-77.781v251.584
	C309.35,488.13,285.472,512.008,256.017,512.008z M213.35,170.675c1.398,0.001,2.783,0.276,4.075,0.811
	c3.989,1.649,6.591,5.539,6.592,9.856v277.333c0,17.673,14.327,32,32,32c17.673,0,32-14.327,32-32V181.342
	c-0.011-5.891,4.757-10.675,10.648-10.686c2.84-0.005,5.565,1.123,7.571,3.134l96,96c13.508,13.508,35.409,13.508,48.917,0
	c13.508-13.508,13.508-35.409,0-48.917L256.017,25.758L60.902,220.894c-13.508,13.508-13.508,35.409,0,48.917
	s35.409,13.508,48.917,0l0,0l96-96C207.815,171.809,210.524,170.681,213.35,170.675z"/>
<g>
</g>
<g>
</g>
<g>
</g>
<g>
</g>
<g>
</g>
<g>
</g>
<g>
</g>
<g>
</g>
<g>
</g>
<g>
</g>
<g>
</g>
<g>
</g>
<g>
</g>
<g>
</g>
<g>
</g>
</svg>
